<?xml version="1.0" standalone="no"?>
<!DOCTYPE svg PUBLIC "-//W3C//DTD SVG 20010904//EN"
 "http://www.w3.org/TR/2001/REC-SVG-20010904/DTD/svg10.dtd">
<svg version="1.0" xmlns="http://www.w3.org/2000/svg"
 width="130.000000pt" height="50.000000pt" viewBox="0 0 130.000000 50.000000"
 preserveAspectRatio="xMidYMid meet">

<g transform="translate(0.000000,50.000000) scale(0.100000,-0.100000)"
fill="#000000" stroke="none">
<path d="M64 397 c-28 -25 -26 -47 4 -47 13 0 14 2 4 8 -10 7 -8 15 8 35 26
33 20 35 -16 4z"/>
<path d="M605 215 l0 -140 48 -1 47 -1 -45 4 -44 4 -4 137 -3 137 1 -140z"/>
<path d="M823 323 c15 -2 39 -2 55 0 15 2 2 4 -28 4 -30 0 -43 -2 -27 -4z"/>
<path d="M761 274 c0 -11 3 -14 6 -6 3 7 2 16 -1 19 -3 4 -6 -2 -5 -13z"/>
<path d="M132 273 c48 -2 129 -2 180 0 51 1 12 3 -87 3 -99 0 -141 -2 -93 -3z"/>
<path d="M172 128 l2 -53 3 47 4 47 117 4 117 3 -122 2 -123 2 2 -52z"/>
<path d="M1199 93 c-13 -16 -12 -17 4 -4 16 13 21 21 13 21 -2 0 -10 -8 -17
-17z"/>
</g>
</svg>
